<?xml version="1.0" standalone="no"?>
<svg
  width="600"
  height="600"
  viewBox="0 0 600 600"
  xmlns="http://www.w3.org/2000/svg"
>
  <g transform="translate(300,300)">
    <path d="M149.6,-177.4C183.9,-149.5,194.9,-92.9,186.5,-46.7C178.2,-0.5,150.6,35.2,128.7,75.3C106.7,115.3,90.5,159.6,62.2,169.1C34,178.5,-6.3,153.2,-58,141.9C-109.8,130.7,-173.1,133.6,-188,108.3C-202.9,83,-169.4,29.5,-151.1,-18.4C-132.8,-66.3,-129.7,-108.6,-107.1,-138.6C-84.4,-168.6,-42.2,-186.3,7.7,-195.5C57.6,-204.7,115.3,-205.4,149.6,-177.4Z" fill="#9900ef" />
  </g>
</svg>
  